<svg xmlns="http://www.w3.org/2000/svg" style="display: none;">
  
    <symbol id="icon-info" viewBox="0 0 512 512">
      <path d="m256 512c-141 0-256-115-256-256 0-141 115-256 256-256 141 0 256 115 256 256 0 141-115 256-256 256z m26-125l0-159c0-13-12-23-26-23-14 0-26 10-26 23l0 159c0 12 12 23 26 23 14 0 26-11 26-23z m-26-233c14 0 26-12 26-26 0-14-12-26-26-26-14 0-26 12-26 26 0 14 12 26 26 26z"/>
    </symbol>
  
    <symbol id="icon-play" viewBox="0 0 512 512">
      <path d="m256 512c-141 0-256-115-256-256 0-141 115-256 256-256 141 0 256 115 256 256 0 141-115 256-256 256z m-51-344l0 176c0 15 9 20 21 12l125-86c12-8 12-20 0-28l-125-86c-12-8-21-3-21 12z"/>
    </symbol>
  
    <symbol id="icon-back" viewBox="0 0 512 512">
      <path d="m113 230l346 0c15 0 27 12 27 26 0 14-12 26-27 26l-346 0 59 58c10 10 10 27 0 37-10 10-27 10-36 0l-103-103c-10-10-10-26 0-36l103-102c9-10 26-10 36 0 10 9 10 26 0 36z"/>
    </symbol>
  
    <symbol id="icon-close" viewBox="0 0 512 512">
      <path d="m292 256l110 110c10 10 10 26 0 36-10 10-26 10-36 0l-110-110-110 110c-10 10-26 10-36 0-10-10-10-26 0-36l110-110-110-110c-10-10-10-26 0-36 10-10 26-10 36 0l110 110 110-110c10-10 26-10 36 0 10 10 10 26 0 36z"/>
    </symbol>
  
    <symbol id="icon-cooking-time" viewBox="0 0 512 512">
      <path d="m256 512c-141 0-256-115-256-256 0-141 115-256 256-256 141 0 256 115 256 256 0 141-115 256-256 256z m0-51c113 0 205-92 205-205 0-113-92-205-205-205-113 0-205 92-205 205 0 113 92 205 205 205z m26-231l0-76c0-15-12-26-26-26-14 0-26 11-26 26l0 102c0 14 12 26 26 26l102 0c15 0 26-12 26-26 0-14-11-26-26-26z"/>
    </symbol>
  
    <symbol id="icon-cuisine" viewBox="0 0 512 512">
      <path d="m410 282l0 102-308 0 0-102c-56 0-102-46-102-103 0-56 46-102 102-102 12 0 24 2 34 6 19-49 65-83 120-83 55 0 101 34 120 83 10-4 22-6 34-6 56 0 102 46 102 102 0 57-46 103-102 103z m-308 153l308 0 0 77-308 0z"/>
    </symbol>
  
    <symbol id="icon-feedback" viewBox="0 0 512 512">
      <path d="m410 410l0 76c0 23-28 35-44 19l-95-95-220 0c-28 0-51-23-51-52l0-281c0-28 23-51 51-51l410 0c28 0 51 23 51 51l0 281c0 29-23 52-51 52z m-154-154c14 0 26-11 26-26 0-14-12-25-26-25-14 0-26 11-26 25 0 15 12 26 26 26z m102 0c15 0 26-11 26-26 0-14-11-25-26-25-14 0-25 11-25 25 0 15 11 26 25 26z m-204 0c14 0 25-11 25-26 0-14-11-25-25-25-15 0-26 11-26 25 0 15 11 26 26 26z"/>
    </symbol>
  
    <symbol id="icon-ingredients" viewBox="0 0 512 512">
      <path d="m128 128c0-71 57-128 128-128 71 0 128 57 128 128l77 0 0 333c0 28-23 51-51 51l-308 0c-28 0-51-23-51-51l0-333z m51 0l154 0c0-42-35-77-77-77-42 0-77 35-77 77z m165 106c16 0 29-13 29-29 0-16-13-29-29-29-16 0-29 13-29 29 0 16 13 29 29 29z m-176 0c16 0 29-13 29-29 0-16-13-29-29-29-16 0-29 13-29 29 0 16 13 29 29 29z"/>
    </symbol>
  
    <symbol id="icon-grid" viewBox="0 0 512 512">
      <path d="m26 77c0-28 22-51 51-51l102 0c29 0 51 22 51 51l0 102c0 29-22 51-51 51l-102 0c-28 0-51-22-51-51z m256 0c0-28 22-51 51-51l102 0c29 0 51 22 51 51l0 102c0 29-22 51-51 51l-102 0c-28 0-51-22-51-51z m-256 256c0-28 22-51 51-51l102 0c29 0 51 22 51 51l0 102c0 29-22 51-51 51l-102 0c-28 0-51-22-51-51z m256 0c0-28 22-51 51-51l102 0c29 0 51 22 51 51l0 102c0 29-22 51-51 51l-102 0c-28 0-51-22-51-51z"/>
    </symbol>
  
    <symbol id="icon-list" viewBox="0 0 512 512">
      <path d="m26 77c0-28 22-51 51-51l358 0c29 0 51 22 51 51l0 102c0 29-22 51-51 51l-358 0c-29 0-51-22-51-51z m0 256c0-28 22-51 51-51l358 0c29 0 51 22 51 51l0 102c0 29-22 51-51 51l-358 0c-29 0-51-22-51-51z"/>
    </symbol>
  
    <symbol id="icon-notifications" viewBox="0 0 512 512">
      <path d="m284 77c-2 8-2 17-2 25 0 71 57 128 128 128 8 0 17 0 25-2l0 207c0 29-23 51-51 51l-307 0c-29 0-51-22-51-51l0-307c0-28 22-51 51-51z m126 102c-43 0-77-34-77-77 0-42 34-76 77-76 42 0 76 34 76 76 0 43-34 77-76 77z"/>
    </symbol>
  
    <symbol id="icon-star" viewBox="0 0 512 512">
      <path d="m256 422l-120 64c-25 13-42 1-37-27l23-134-97-95c-20-19-14-39 14-43l134-19 60-122c13-25 33-25 46 0l60 122 134 19c28 4 34 24 14 43l-97 95 23 134c5 28-12 40-37 27z"/>
    </symbol>
  
    <symbol id="icon-search" viewBox="0 0 512 512">
      <path d="m205 384c-99 0-179-80-179-179 0-99 80-179 179-179 99 0 179 80 179 179 0 99-80 179-179 179z m0-51c70 0 128-58 128-128 0-71-58-128-128-128-71 0-128 57-128 128 0 70 57 128 128 128z m156 100c-20-20-20-52 0-72 20-20 52-20 72 0l38 38c20 20 20 52 0 72-20 20-52 20-72 0z"/>
    </symbol>
  
    <symbol id="icon-hart" viewBox="0 0 512 512">
      <path d="m371 26c-76 0-115 64-115 64 0 0-38-64-115-64-64 0-141 51-141 141 0 104 77 207 250 318 2 1 4 1 6 1 3 0 5 0 7-1 172-111 249-214 249-318 0-90-74-141-141-141z"/>
    </symbol>
  
    <symbol id="icon-settings" viewBox="0 0 512 512">
      <path d="m429 256c0-8-1-15-2-23l49-38c4-3 5-9 3-14l-47-80c-2-5-9-7-14-5l-57 23c-12-9-25-17-39-23l-9-61c0-5-5-9-11-9l-92 0c-6 0-11 4-11 9l-9 61c-14 6-27 14-39 23l-57-23c-6-2-12 0-14 5l-46 80c-3 5-2 11 2 14l49 38c-1 8-2 15-2 23 0 8 1 15 2 23l-49 38c-4 3-5 9-2 14l46 80c2 5 9 7 14 5l57-23c12 9 25 17 39 23l9 61c0 5 5 9 11 9l92 0c6 0 11-4 11-9l9-61c14-6 27-14 39-23l57 23c6 2 12 0 14-5l47-80c2-5 1-11-3-14l-49-38c1-8 2-15 2-23z m-173 81c-44 0-81-37-81-81 0-44 37-81 81-81 44 0 81 37 81 81 0 44-37 81-81 81z"/>
    </symbol>
  
    <symbol id="icon-share" viewBox="0 0 512 512">
      <path d="m282 113l0 194c0 14-12 26-26 26-14 0-26-12-26-26l0-195-46 47c-10 9-26 9-36 0-10-10-10-26 0-36l90-90c10-10 26-10 36 0l90 90c10 10 10 26 0 36-10 10-26 10-36 0z m-208 323l364 0 0-51c0-14 11-26 24-26 14 0 24 12 24 26l0 77c0 14-10 25-24 25l-412 0c-14 0-24-11-24-25l0-77c0-14 10-26 24-26 13 0 24 12 24 26z"/>
    </symbol>
  
    <symbol id="icon-chevron-right" viewBox="0 0 512 512">
      <path d="m298 256l-167-174c-4-4-4-11 0-16l30-30c5-5 12-5 16-1l204 213c2 2 3 5 3 8 0 3-1 6-3 8l-204 213c-4 4-11 4-16 0l-30-31c-4-4-4-11 0-16z"/>
    </symbol>
  
    <symbol id="icon-chevron-left" viewBox="0 0 512 512">
      <path d="m214 256l167-174c4-4 4-11 0-16l-30-30c-4-5-11-5-16-1l-204 213c-2 2-3 5-3 8 0 3 1 6 3 8l204 213c5 4 12 4 16 0l30-31c4-4 4-11 0-16z"/>
    </symbol>
  
    <symbol id="icon-chevron-up" viewBox="0 0 512 512">
      <path d="m256 214l174 167c5 4 12 4 16 0l31-30c4-4 4-11 0-16l-213-204c-2-2-5-3-8-3-3 0-6 1-8 3l-213 204c-4 5-4 12 0 16l31 30c4 4 12 4 16 0z"/>
    </symbol>
  
    <symbol id="icon-chevron-down" viewBox="0 0 512 512">
      <path d="m256 298l174-167c5-4 12-4 16 0l31 30c4 5 4 12 0 16l-213 204c-2 2-5 3-8 3-3 0-6-1-8-3l-213-204c-4-4-4-11 0-16l31-30c4-4 12-4 16 0z"/>
    </symbol>
  
</svg>
